<?xml version="1.0" standalone="no"?>
<!DOCTYPE svg PUBLIC "-//W3C//DTD SVG 20010904//EN"
 "http://www.w3.org/TR/2001/REC-SVG-20010904/DTD/svg10.dtd">
<svg version="1.0" xmlns="http://www.w3.org/2000/svg"
 width="512.000000pt" height="512.000000pt" viewBox="0 0 512.000000 512.000000"
 preserveAspectRatio="xMidYMid meet">
<metadata>
Created by potrace 1.11, written by Peter Selinger 2001-2013
</metadata>
<g transform="translate(0.000000,512.000000) scale(0.100000,-0.100000)"
fill="#000000" stroke="none">
<path d="M2506 5013 c-1 -1 -25 -5 -53 -7 -43 -5 -103 -17 -148 -30 -5 -1 -28
-8 -50 -14 -59 -17 -65 -24 -60 -62 2 -19 6 -62 10 -95 4 -33 10 -73 15 -88 5
-16 5 -25 0 -22 -5 3 -5 -9 0 -27 5 -18 11 -58 15 -88 14 -131 35 -301 41
-335 7 -44 14 -105 19 -150 2 -22 6 -56 9 -75 4 -19 9 -57 12 -85 3 -27 7 -61
9 -75 2 -14 6 -50 9 -80 3 -30 7 -64 10 -75 2 -11 7 -47 10 -80 14 -122 21
-181 32 -248 2 -15 6 -51 9 -80 2 -28 7 -64 10 -79 3 -14 8 -48 10 -75 3 -26
7 -59 9 -73 2 -14 4 -33 5 -42 1 -16 16 -18 175 -18 96 0 177 3 179 8 3 4 8
36 12 72 3 36 8 81 10 100 3 19 7 58 10 85 3 28 7 66 9 85 3 19 8 64 11 100 4
36 8 72 10 80 1 8 6 49 10 90 4 41 9 82 10 90 3 18 16 141 20 190 2 19 4 35 5
35 1 0 3 18 4 40 2 22 6 63 9 90 4 28 9 75 12 105 3 30 8 69 10 85 2 17 7 57
10 90 3 33 8 71 10 85 2 14 7 57 10 95 4 39 9 84 11 100 2 17 6 50 8 75 6 50
14 124 21 186 l5 41 -73 22 c-95 28 -136 37 -227 47 -48 6 -190 11 -194 7z"/>
<path d="M1997 3572 c-262 -136 -456 -330 -585 -587 -62 -124 -117 -325 -128
-465 -3 -36 -6 -76 -7 -90 -1 -14 2 -31 7 -37 4 -7 5 -13 0 -13 -10 0 -11
-121 -1 -137 4 -5 4 -13 0 -17 -9 -9 -10 -87 -1 -93 5 -2 5 -9 1 -16 -10 -16
-10 -117 0 -117 5 0 5 -5 1 -11 -10 -16 -11 -99 -1 -99 4 0 5 -5 2 -11 -10
-15 -12 -110 -3 -116 5 -2 5 -9 1 -16 -9 -15 -10 -88 -1 -94 5 -2 5 -9 1 -16
-10 -16 -10 -117 0 -117 5 0 5 -5 1 -11 -10 -16 -11 -99 -1 -99 4 0 5 -5 1
-12 -4 -6 -7 -50 -6 -97 l0 -86 240 -235 c258 -254 506 -492 573 -549 92 -79
207 -201 259 -275 16 -24 37 -46 43 -46 2 0 2 19 1 42 -1 24 -5 111 -9 193 -3
83 -8 191 -10 240 -2 50 -6 151 -10 225 -3 74 -7 180 -10 235 -3 55 -7 161
-10 235 -9 255 -16 383 -21 391 -2 4 -82 51 -177 104 -94 54 -197 111 -227
129 -30 17 -76 43 -102 56 l-48 25 0 137 c0 76 2 138 4 138 2 0 41 -18 87 -39
46 -22 98 -43 114 -47 17 -4 35 -10 40 -15 23 -17 252 -70 380 -86 115 -15
377 -6 478 16 23 6 58 13 77 16 76 13 294 87 340 115 15 10 80 40 85 40 2 0 2
-62 1 -137 l-1 -138 -40 -20 c-21 -11 -45 -26 -53 -32 -7 -7 -19 -13 -27 -13
-7 0 -15 -3 -17 -7 -1 -5 -19 -16 -38 -27 -65 -34 -165 -89 -213 -118 -26 -15
-50 -28 -52 -28 -4 0 -98 -55 -113 -66 -3 -2 -8 -87 -16 -317 -2 -60 -6 -111
-10 -114 -3 -3 -1 -13 4 -23 5 -10 6 -20 3 -24 -3 -3 -7 -43 -9 -88 -2 -81 -9
-264 -19 -483 -6 -126 -14 -322 -19 -442 -1 -46 -1 -83 0 -83 2 0 256 251 565
558 l561 559 0 634 c-1 349 -3 650 -6 669 -2 19 -8 58 -11 85 -10 84 -51 226
-93 323 -121 281 -339 511 -617 649 -101 51 -100 51 -113 -9 -6 -29 -14 -69
-17 -88 -3 -19 -7 -46 -10 -60 -3 -14 -7 -38 -10 -55 -4 -27 -67 -380 -79
-450 -3 -16 -8 -41 -11 -55 -3 -14 -7 -40 -9 -58 -2 -18 -7 -36 -10 -39 -3 -3
-136 -6 -296 -7 l-291 -1 -9 35 c-5 19 -17 67 -26 105 -9 39 -18 78 -20 88 -2
9 -6 26 -9 37 -11 42 -16 66 -20 85 -3 11 -20 83 -39 159 -20 76 -33 143 -30
147 2 4 0 10 -5 13 -5 3 -12 23 -17 43 -4 21 -8 40 -9 43 -1 3 -5 23 -10 45
-14 71 -13 71 -118 17z"/>
</g>
</svg>
