<svg xmlns="http://www.w3.org/2000/svg" xmlns:xlink="http://www.w3.org/1999/xlink" version="1.0" x="0px" y="0px" viewBox="0 0 100 125" enable-background="new 0 0 100 100" xml:space="preserve"><path d="M52.0607338,41.7936821l3.9326897-35.2799263c-8.1850357-3.2951508-14.864933,0-14.864933,0l4.4332199,35.2799263  H52.0607338z"/><path d="M56.9340668,30.5400028l-2.8120155,15.8795528H43.3131638l-3.8249512-15.8083839  c-8.8123837,3.5089417-15.0456982,12.1085625-15.0456982,22.1685295v21.8790741l20.4697819,20.5035553l-1.2246704-28.875824  l-10.2463531-5.7464523v-5.0624352c1.8156319,0.9689827,3.6048012,1.7033157,5.3510399,2.2640724  c2.3754578,0.7388229,5.426796,1.3891754,8.9275093,1.4549217c0.1561813,0.0027122,0.3123627,0.0036469,0.4666748,0.0036469  c0.1552467,0,0.3114281-0.0009346,0.4676094-0.0036469c3.5007133-0.0657463,6.5520515-0.7160988,8.9275093-1.4549217  c1.7462387-0.5607567,3.533535-1.2950897,5.3501053-2.2640724v5.0624352l-10.2471962,5.7464523l-1.2284088,28.9917908  l20.6999512-20.6195221V52.7797012C72.1560669,42.6512756,65.8396912,34.0013428,56.9340668,30.5400028z"/><polygon points="44.9159431,95.1669159 44.9122963,95.1623306 44.9314651,95.1623306 "/><text x="0" y="115" fill="#000000" font-size="5px" font-weight="bold" font-family="'Helvetica Neue', Helvetica, Arial-Unicode, Arial, Sans-serif">Created by Alex Tai</text><text x="0" y="120" fill="#000000" font-size="5px" font-weight="bold" font-family="'Helvetica Neue', Helvetica, Arial-Unicode, Arial, Sans-serif">from the Noun Project</text></svg>